# Exported from Figuro at https://www.figuro.io

mtllib newscene.mtl
o cube2
v -1534.3801905657822 0 1658.167135813699
v 565.9935205042491 0 1658.167135813699
v 565.9935205042491 256 1658.167135813699
v -1534.3801905657822 256 1658.167135813699
v 565.9935205042491 0 -903.532212743952
v 565.9935205042491 256 -903.532212743952
v -1534.3801905657822 0 -903.532212743952
v -1534.3801905657822 256 -903.532212743952
# 8 vertices
vt -5.993672619397587 2
vt 2.210912189469723 2
vt 2.210912189469723 1
vt -5.993672619397587 1
vt -6.477215374272261 2
vt 3.5294227060310623 2
vt 3.5294227060310623 1
vt -6.477215374272261 1
vt -2.210912189469723 2
vt 5.993672619397587 2
vt 5.993672619397587 1
vt -2.210912189469723 1
vt -3.5294227060310623 2
vt 6.477215374272261 2
vt 6.477215374272261 1
vt -3.5294227060310623 1
vt -5.993672619397587 7.477215374272261
vt 2.210912189469723 7.477215374272261
vt 2.210912189469723 -2.5294227060310623
vt -5.993672619397587 -2.5294227060310623
vt -5.993672619397587 4.529422706031062
vt 2.210912189469723 4.529422706031062
vt 2.210912189469723 -5.477215374272261
vt -5.993672619397587 -5.477215374272261
# 24 uvs
vn -0.3333333333333333 -0.3333333333333333 0.3333333333333333
vn 0.3333333333333333 -0.3333333333333333 0.3333333333333333
vn 0.3333333333333333 0.3333333333333333 0.3333333333333333
vn -0.3333333333333333 0.3333333333333333 0.3333333333333333
vn 0.3333333333333333 -0.3333333333333333 -0.3333333333333333
vn 0.3333333333333333 0.3333333333333333 -0.3333333333333333
vn -0.3333333333333333 -0.3333333333333333 -0.3333333333333333
vn -0.3333333333333333 0.3333333333333333 -0.3333333333333333
# 8 normals
usemtl a9ba9d
f 1/4/1 2/3/2 3/2/3 4/1/4 
f 2/8/2 5/7/5 6/6/6 3/5/3 
f 5/12/5 7/11/7 8/10/8 6/9/6 
f 7/16/7 1/15/1 4/14/4 8/13/8 
f 7/20/7 5/19/5 2/18/2 1/17/1 
f 4/24/4 3/23/3 6/22/6 8/21/8 
# 6 polygons